<svg width="24" height="24" viewBox="0 0 24 24" fill="none" xmlns="http://www.w3.org/2000/svg">
<path d="M10.9768 4.8092C11.2805 4.8092 11.5843 4.83038 11.8863 4.87099C11.8386 4.86392 11.7927 4.85863 11.745 4.85157C12.3296 4.93277 12.9 5.08812 13.444 5.31585C13.4016 5.2982 13.3592 5.28054 13.3168 5.26289C13.6577 5.40765 13.9862 5.57888 14.297 5.7766C14.433 5.8631 14.5672 5.9549 14.6961 6.05023C14.7261 6.07318 14.7579 6.09613 14.788 6.11908C14.6449 6.01139 14.7579 6.09613 14.7915 6.12261C14.8568 6.17557 14.9222 6.23029 14.9875 6.28502C15.2348 6.49862 15.4661 6.72988 15.6781 6.97703C15.7275 7.03528 15.777 7.09354 15.8246 7.15356C15.8405 7.17475 15.9235 7.28067 15.8617 7.19946C15.8017 7.12179 15.8564 7.1924 15.867 7.20652C15.8829 7.22771 15.8971 7.24712 15.913 7.26831C16.0083 7.39894 16.1002 7.53134 16.1867 7.66727C16.3827 7.97797 16.554 8.30456 16.6971 8.6435C16.6794 8.60113 16.6618 8.55877 16.6441 8.5164C16.8737 9.06542 17.0309 9.64092 17.1104 10.2288C17.1033 10.1811 17.098 10.1352 17.0909 10.0875C17.1686 10.6772 17.1686 11.2756 17.0909 11.867C17.098 11.8193 17.1033 11.7734 17.1104 11.7258C17.0309 12.3154 16.8737 12.8909 16.6441 13.4381C16.6618 13.3958 16.6794 13.3534 16.6971 13.311C16.5682 13.6147 16.4181 13.9077 16.2467 14.1902C16.162 14.3279 16.0737 14.4638 15.9801 14.5944C15.9359 14.6562 15.89 14.718 15.8441 14.778C15.8035 14.8328 15.9324 14.6668 15.8723 14.741C15.8617 14.7551 15.8511 14.7674 15.8405 14.7816C15.8123 14.8186 15.7823 14.8539 15.7522 14.8892C15.5438 15.1399 15.316 15.3747 15.0723 15.5919C15.0158 15.643 14.9575 15.6925 14.8992 15.7419C14.8692 15.7666 14.8409 15.7913 14.8109 15.8143C14.7791 15.8408 14.6378 15.9449 14.788 15.8337C14.659 15.9308 14.5283 16.0261 14.3941 16.1144C14.0533 16.3386 13.693 16.531 13.3168 16.6917C13.3592 16.674 13.4016 16.6563 13.444 16.6387C12.9 16.8664 12.3296 17.0235 11.745 17.103C11.7927 17.0959 11.8386 17.0906 11.8863 17.0836C11.284 17.163 10.673 17.1648 10.069 17.0836C10.1167 17.0906 10.1626 17.0959 10.2103 17.103C9.62746 17.0235 9.05702 16.8682 8.51483 16.6405C8.55722 16.6581 8.5996 16.6758 8.64199 16.6934C8.33292 16.5628 8.03446 16.4092 7.75012 16.2344C7.6053 16.1462 7.46225 16.0508 7.32449 15.952C7.2927 15.929 7.26268 15.9061 7.23089 15.8831C7.21499 15.8708 7.18674 15.8567 7.17614 15.8408C7.17437 15.839 7.28917 15.929 7.22912 15.8814C7.16201 15.8284 7.09667 15.7754 7.03132 15.7207C6.77877 15.5071 6.54035 15.2741 6.32136 15.0252C6.26484 14.9616 6.21009 14.8963 6.15711 14.831C6.13239 14.801 6.10943 14.771 6.0847 14.741C6.07587 14.7286 6.06527 14.7162 6.05644 14.7039C6.17124 14.8486 6.09353 14.7516 6.06881 14.7198C5.97167 14.5891 5.87807 14.4567 5.79153 14.319C5.5849 13.9978 5.40829 13.6606 5.25817 13.3093C5.27584 13.3516 5.2935 13.394 5.31116 13.4364C5.08333 12.8944 4.92792 12.3242 4.84844 11.7417C4.85551 11.7893 4.86081 11.8352 4.86787 11.8829C4.78663 11.2809 4.78663 10.6701 4.86787 10.0681C4.86081 10.1158 4.85551 10.1617 4.84844 10.2094C4.92792 9.62679 5.08333 9.05659 5.31116 8.51463C5.2935 8.557 5.27584 8.59937 5.25817 8.64174C5.38886 8.3328 5.54251 8.03446 5.71736 7.75024C5.80566 7.60549 5.90103 7.46249 5.99993 7.3248C6.02289 7.29302 6.04585 7.26301 6.06881 7.23124C6.08117 7.21535 6.0953 7.1871 6.11119 7.17651C6.11296 7.17475 6.02289 7.28949 6.07057 7.22947C6.12356 7.16239 6.17654 7.09707 6.23129 7.03175C6.44498 6.77931 6.67811 6.54099 6.92712 6.32209C6.9907 6.2656 7.05605 6.21087 7.12139 6.15791C7.15142 6.1332 7.18144 6.11025 7.21146 6.08554C7.22382 6.07671 7.23619 6.06612 7.24855 6.05729C7.10373 6.17204 7.20087 6.09436 7.23266 6.06965C7.36335 5.97255 7.4958 5.87899 7.63356 5.79249C7.95498 5.58595 8.29231 5.40941 8.64376 5.25936C8.60137 5.27701 8.55898 5.29467 8.5166 5.31232C9.05878 5.08459 9.62923 4.92924 10.212 4.8498C10.1644 4.85686 10.1184 4.86216 10.0708 4.86922C10.3692 4.83038 10.673 4.8092 10.9768 4.8092C11.254 4.8092 11.5189 4.56558 11.5066 4.2796C11.4942 3.99362 11.2735 3.75 10.9768 3.75C9.58861 3.75177 8.1987 4.15426 7.03662 4.91689C5.91163 5.65479 4.9809 6.70164 4.41928 7.92854C4.12965 8.56053 3.92125 9.22077 3.82588 9.90925C3.71992 10.6595 3.72521 11.3992 3.84001 12.1495C4.04841 13.5017 4.67713 14.7763 5.5849 15.7984C6.4803 16.8064 7.67241 17.5531 8.96695 17.9274C10.4964 18.3705 12.1971 18.2963 13.6718 17.6891C14.433 17.3748 15.1253 16.9547 15.7487 16.4145C16.2997 15.9361 16.7766 15.3624 17.158 14.741C17.9528 13.4417 18.3237 11.8758 18.1824 10.3576C18.1082 9.55794 17.9104 8.79885 17.5943 8.06271C17.3011 7.38305 16.8914 6.75813 16.4039 6.20028C15.3584 5.00692 13.8926 4.16485 12.3313 3.87887C11.8845 3.79766 11.4306 3.75177 10.9768 3.75C10.6995 3.75 10.4346 3.99362 10.4469 4.2796C10.4593 4.56735 10.68 4.8092 10.9768 4.8092Z" fill="black"/>
<path d="M15.359 16.0976C15.8111 16.5495 16.2632 17.0014 16.7153 17.4533C17.4323 18.17 18.1511 18.8885 18.8681 19.6052C19.0324 19.7694 19.1966 19.9336 19.3609 20.0978C19.5569 20.2937 19.9172 20.3078 20.1097 20.0978C20.3039 19.8859 20.3198 19.5576 20.1097 19.3493C19.6575 18.8974 19.2054 18.4454 18.7533 17.9935C18.0363 17.2768 17.3175 16.5583 16.6005 15.8416C16.4363 15.6774 16.272 15.5133 16.1078 15.3491C15.9118 15.1531 15.5515 15.139 15.359 15.3491C15.1647 15.5592 15.1488 15.8875 15.359 16.0976Z" fill="black"/>
</svg>
