<svg width="181" height="46" viewBox="0 0 181 46" fill="none" xmlns="http://www.w3.org/2000/svg">
<g id="Brand / Logo / Logotipo_Qualitas">
<g id="Logotipo_Qualitas">
<path id="Fill 1" fill-rule="evenodd" clip-rule="evenodd" d="M19.546 5.19378C15.458 5.19378 12.0796 6.51158 9.4118 9.14738C6.7436 11.7828 5.41 15.103 5.41 19.1084C5.41 23.0098 6.7524 26.2574 9.438 28.8492C12.123 31.441 15.4924 32.7376 19.546 32.7376C23.548 32.7376 26.9174 31.4116 29.6546 28.7574C32.3918 26.1056 33.7604 22.8366 33.7604 18.9524C33.7604 14.9814 32.4176 11.6952 29.7326 9.09418C27.047 6.49318 23.6518 5.19378 19.546 5.19378ZM38.2862 39.396L33.0624 44.4674C31.4336 44.3808 29.7312 44.091 27.9552 43.5964C26.179 43.1026 24.3772 42.4214 22.5494 41.5544C20.721 40.6874 18.2824 39.2054 15.2326 37.107C10.8134 36.3094 7.17 34.2114 4.3022 30.8128C1.4336 27.4142 0 23.4954 0 19.0564C0 13.6292 1.8456 9.13818 5.5364 5.58338C9.2272 2.02878 13.8974 0.250977 19.546 0.250977C25.1604 0.250977 29.8258 2.01638 33.5432 5.54458C37.26 9.07278 39.1184 13.5076 39.1184 18.8482C39.1184 23.3394 37.715 27.2846 34.9076 30.6832C32.1 34.0818 28.4692 36.2228 24.0162 37.107L25.3936 37.6274C29.674 39.2746 32.7584 40.0978 34.6474 40.0978C35.6868 40.0978 36.8996 39.8642 38.2862 39.396Z" fill="#008C99"/>
<path id="Fill 3" fill-rule="evenodd" clip-rule="evenodd" d="M58.6041 37.107V34.0378C57.5985 35.1384 56.4495 35.9944 55.1583 36.6062C53.8659 37.2172 52.5785 37.5232 51.2955 37.5232C49.7869 37.5232 48.3957 37.1458 47.1207 36.392C45.8467 35.6372 44.8837 34.6142 44.2339 33.3228C43.5833 32.0316 43.2583 29.8856 43.2583 26.8848V13.178H47.9921V26.8154C47.9921 29.3266 48.3517 31.081 49.0719 32.0766C49.7911 33.072 51.0521 33.5696 52.8561 33.5696C55.1097 33.5696 57.0261 32.4692 58.6041 30.267V13.178H63.3379V37.107H58.6041Z" fill="#008C99"/>
<g id="Group 7">
<mask id="mask0" mask-type="alpha" maskUnits="userSpaceOnUse" x="68" y="0" width="22" height="38">
<path id="Clip 6" fill-rule="evenodd" clip-rule="evenodd" d="M68.6401 0.199951H89.1099V37.5232H68.6401V0.199951Z" fill="white"/>
</mask>
<g mask="url(#mask0)">
<path id="Fill 5" fill-rule="evenodd" clip-rule="evenodd" d="M84.4021 0.199951L78.5239 8.00295H75.6109L79.1223 0.199951H84.4021ZM80.9429 32.3734V25.2734L77.7697 26.4954C76.1569 27.137 75.0167 27.7826 74.3495 28.4332C73.6815 29.083 73.3479 29.894 73.3479 30.8648C73.3479 31.8534 73.6643 32.6602 74.2977 33.2844C74.9301 33.9086 75.7495 34.2208 76.7553 34.2208C78.2639 34.2208 79.6591 33.6046 80.9429 32.3734ZM85.5985 22.7234V32.8937C85.5985 33.7085 85.8755 34.1166 86.4309 34.1166C87.0031 34.1166 87.8961 33.6913 89.1099 32.8415V35.7284C88.0343 36.4228 87.1719 36.8952 86.5223 37.146C85.8715 37.3968 85.1911 37.5233 84.4803 37.5233C82.4513 37.5233 81.2551 36.7257 80.8907 35.1304C78.8789 36.6912 76.7381 37.4714 74.4663 37.4714C72.8017 37.4714 71.4143 36.9216 70.3049 35.8202C69.1951 34.7186 68.6401 33.3354 68.6401 31.6707C68.6401 30.1632 69.1817 28.8148 70.2655 27.6266C71.3493 26.4391 72.8885 25.4988 74.8825 24.804L80.9429 22.7234V21.4494C80.9429 18.5709 79.5031 17.1318 76.6251 17.1318C74.0411 17.1318 71.5273 18.467 69.0823 21.1374V15.961C70.9199 13.7946 73.5647 12.7102 77.0153 12.7102C79.5989 12.7102 81.6711 13.3866 83.2317 14.7388C83.7519 15.1724 84.2201 15.7498 84.6363 16.469C85.0523 17.1877 85.3165 17.908 85.4299 18.6272C85.5419 19.3472 85.5985 20.7129 85.5985 22.7234Z" fill="#008C99"/>
</g>
</g>
<mask id="mask1" mask-type="alpha" maskUnits="userSpaceOnUse" x="0" y="0" width="181" height="46">
<path id="Clip 9" fill-rule="evenodd" clip-rule="evenodd" d="M0 45.7262H180.259V0.199951H0V45.7262Z" fill="white"/>
</mask>
<g mask="url(#mask1)">
<path id="Fill 8" fill-rule="evenodd" clip-rule="evenodd" d="M92.5366 37.1072H97.2704V0.77124H92.5366V37.1072Z" fill="#008C99"/>
<path id="Fill 10" fill-rule="evenodd" clip-rule="evenodd" d="M104.76 37.1072H109.494V13.1782H104.76V37.1072ZM107.101 3.11304C107.881 3.11304 108.548 3.38144 109.104 3.91884C109.658 4.45644 109.936 5.11524 109.936 5.89564C109.936 6.65844 109.658 7.31744 109.104 7.87244C108.548 8.42724 107.881 8.70464 107.101 8.70464C106.373 8.70464 105.731 8.42324 105.176 7.85904C104.621 7.29604 104.344 6.64104 104.344 5.89564C104.344 5.16724 104.621 4.52164 105.176 3.95744C105.731 3.39464 106.373 3.11304 107.101 3.11304Z" fill="#008C99"/>
<path id="Fill 11" fill-rule="evenodd" clip-rule="evenodd" d="M113.002 16.9758L121.898 8.23657V13.1784H129.467V17.444H121.898V29.1554C121.898 31.89 123.033 33.2578 125.305 33.2578C127.004 33.2578 128.799 32.6948 130.689 31.5666V35.9894C128.868 37.0126 126.882 37.5234 124.733 37.5234C122.565 37.5234 120.762 36.891 119.323 35.6242C118.872 35.2438 118.499 34.8142 118.204 34.337C117.909 33.8606 117.662 33.2364 117.463 32.4642C117.264 31.6932 117.164 30.2234 117.164 28.0558V17.444H113.002V16.9758Z" fill="#008C99"/>
<path id="Fill 12" fill-rule="evenodd" clip-rule="evenodd" d="M145.386 32.3734V25.2734L142.213 26.4952C140.6 27.1368 139.46 27.7826 138.793 28.4332C138.125 29.083 137.791 29.894 137.791 30.8648C137.791 31.8532 138.107 32.6602 138.741 33.2844C139.373 33.9086 140.193 34.2206 141.199 34.2206C142.707 34.2206 144.102 33.6046 145.386 32.3734ZM150.042 22.7234V32.8938C150.042 33.7086 150.319 34.1166 150.874 34.1166C151.446 34.1166 152.339 33.6914 153.553 32.8416V35.7282C152.478 36.4228 151.615 36.895 150.965 37.146C150.315 37.3968 149.634 37.5234 148.923 37.5234C146.895 37.5234 145.698 36.7258 145.334 35.1304C143.322 36.6912 141.181 37.4714 138.91 37.4714C137.245 37.4714 135.857 36.9216 134.748 35.82C133.638 34.7186 133.083 33.3354 133.083 31.6706C133.083 30.1632 133.625 28.8148 134.709 27.6266C135.793 26.4392 137.332 25.4988 139.326 24.804L145.386 22.7234V21.4494C145.386 18.571 143.946 17.1318 141.068 17.1318C138.484 17.1318 135.971 18.467 133.526 21.1372V15.961C135.363 13.7944 138.008 12.7102 141.459 12.7102C144.042 12.7102 146.114 13.3864 147.675 14.7388C148.195 15.1724 148.663 15.7498 149.079 16.469C149.496 17.1878 149.76 17.908 149.873 18.6272C149.985 19.3472 150.042 20.713 150.042 22.7234Z" fill="#008C99"/>
<path id="Fill 13" fill-rule="evenodd" clip-rule="evenodd" d="M155.864 35.3906V30.2928C157.199 31.229 158.564 31.9878 159.96 32.5684C161.356 33.1498 162.531 33.4394 163.485 33.4394C164.473 33.4394 165.322 33.1976 166.034 32.7112C166.745 32.2266 167.1 31.6452 167.1 30.969C167.1 30.2754 166.87 29.699 166.41 29.239C165.951 28.78 164.958 28.1172 163.433 27.2502C160.38 25.5508 158.382 24.0984 157.438 22.8928C156.492 21.688 156.02 20.3744 156.02 18.9526C156.02 17.1144 156.735 15.615 158.166 14.4532C159.596 13.2916 161.439 12.7102 163.693 12.7102C166.034 12.7102 168.435 13.3692 170.897 14.6868V19.3688C168.088 17.6694 165.79 16.8198 164.005 16.8198C163.085 16.8198 162.344 17.0156 161.781 17.4062C161.217 17.7958 160.936 18.313 160.936 18.9544C160.936 19.5106 161.191 20.0408 161.701 20.5438C162.212 21.0476 163.109 21.6534 164.393 22.3644L166.084 23.3262C170.073 25.5804 172.068 28.0764 172.068 30.815C172.068 32.7734 171.3 34.3818 169.766 35.6384C168.231 36.895 166.259 37.5234 163.849 37.5234C162.427 37.5234 161.161 37.3714 160.051 37.0686C158.942 36.7656 157.545 36.2056 155.864 35.3906Z" fill="#008C99"/>
<path id="Fill 14" fill-rule="evenodd" clip-rule="evenodd" d="M176.267 41.3964C176.527 41.3964 176.728 41.3422 176.869 41.2334C177.01 41.1252 177.08 40.97 177.08 40.7702C177.08 40.5712 177.006 40.4182 176.858 40.3132C176.71 40.2082 176.513 40.155 176.267 40.155H175.282V41.3964H176.267ZM176.577 39.5074C176.977 39.5074 177.302 39.6174 177.551 39.8368C177.801 40.0562 177.926 40.3426 177.926 40.6956C177.926 41.0342 177.817 41.3178 177.599 41.5464C177.382 41.7748 177.091 41.9034 176.727 41.932V41.9532C176.884 42.0064 177.028 42.0972 177.158 42.2236C177.288 42.3502 177.467 42.6082 177.696 42.9968L178.21 43.8638H177.225L177.021 43.4782C176.846 43.1222 176.682 42.8336 176.526 42.6144C176.371 42.395 176.237 42.247 176.122 42.1706C176.008 42.093 175.85 42.0554 175.646 42.0554H175.282V43.8638H174.485V39.5074H176.577ZM172.863 41.6484C172.863 42.2552 173.014 42.8152 173.315 43.3292C173.617 43.8422 174.021 44.2462 174.528 44.538C175.034 44.8308 175.585 44.9776 176.181 44.9776C176.784 44.9776 177.344 44.8276 177.862 44.5278C178.379 44.2278 178.786 43.823 179.082 43.313C179.378 42.803 179.526 42.2482 179.526 41.6484C179.526 41.0558 179.376 40.5028 179.077 39.9888C178.777 39.4756 178.37 39.0698 177.856 38.772C177.343 38.4742 176.784 38.3254 176.181 38.3254C175.589 38.3254 175.037 38.4722 174.525 38.766C174.013 39.0606 173.608 39.4676 173.31 39.9868C173.012 40.506 172.863 41.0598 172.863 41.6484ZM172.114 41.6484C172.114 40.9242 172.292 40.25 172.649 39.6256C173.006 39.0006 173.503 38.5036 174.139 38.1344C174.777 37.7654 175.46 37.5806 176.192 37.5806C176.937 37.5806 177.624 37.7642 178.253 38.1294C178.88 38.4956 179.371 38.9932 179.727 39.6256C180.082 40.2572 180.259 40.9314 180.259 41.6484C180.259 42.398 180.076 43.0864 179.711 43.7138C179.345 44.3422 178.848 44.8348 178.221 45.1908C177.592 45.5478 176.916 45.7262 176.192 45.7262C175.46 45.7262 174.777 45.5406 174.139 45.1692C173.503 44.7992 173.006 44.3034 172.649 43.6842C172.292 43.0662 172.114 42.3868 172.114 41.6484Z" fill="#008C99"/>
</g>
</g>
</g>
</svg>
